<?xml version="1.0" encoding="UTF-8"?>
<svg id="Layer_2" data-name="Layer 2" xmlns="http://www.w3.org/2000/svg" viewBox="0 0 2000 2000">
  <defs>
    <style>
      .cls-1 {
        fill: none;
        stroke: #3a3a3a;
        stroke-miterlimit: 10;
        stroke-width: 100px;
      }
    </style>
  </defs>
  <path class="cls-1" d="m1219.21,473.74c-25.91,18.17-51.23,39.35-75.25,63.37-76.59,76.59-124.33,166.36-137.99,246.67-2.16-.07-4.32-.1-6.5-.1-1.79,0-3.58.02-5.36.07-13.5-80.48-61.29-170.54-138.11-247.36-23.7-23.7-48.66-44.64-74.21-62.64,26.59-153.08,114.44-265.44,218.71-265.44s192.11,112.35,218.71,265.43Z"/>
  <path class="cls-1" d="m1218.98,1529.2c-26.86,152.42-114.5,264.14-218.48,264.14s-191.62-111.72-218.48-264.14c25.83-18.14,51.07-39.27,75.02-63.22,77.56-77.56,125.53-168.62,138.5-249.7,1.31.03,2.62.04,3.93.04,1.7,0,3.39-.02,5.07-.06,13.13,80.9,61.05,171.66,138.39,249,24.27,24.27,49.86,45.64,76.05,63.94Z"/>
  <path class="cls-1" d="m1793.01,1001.54c0,104.23-112.27,192.05-265.25,218.68-18.28-26.15-39.63-51.7-63.86-75.93-77.09-77.09-167.5-124.94-248.2-138.26.05-2,.08-4.01.08-6.03,0-1.17-.01-2.33-.03-3.49,80.94-13.1,171.78-61.03,249.18-138.43,23.98-23.98,45.14-49.26,63.29-75.13,152.75,26.72,264.79,114.47,264.79,218.59Z"/>
  <path class="cls-1" d="m783.26,1006.92c-80.44,13.55-170.42,61.32-247.19,138.09-23.98,23.98-45.14,49.26-63.29,75.13-152.75-26.73-264.79-114.47-264.79-218.6s111.81-191.69,264.31-218.51c18.03,25.59,38.99,50.59,62.73,74.33,77.08,77.08,167.48,124.93,248.17,138.25-.04,1.46-.05,2.92-.05,4.39,0,2.32.04,4.63.11,6.92Z"/>
  <path class="cls-1" d="m1215.78,1000c0,2.02-.03,4.03-.08,6.03-1.53,55.72-24.11,106.16-60.09,143.67-2.17,2.26-4.38,4.48-6.65,6.65-37.7,36.06-88.43,58.62-144.42,59.91-1.68.04-3.37.06-5.07.06-1.31,0-2.62-.01-3.93-.04-55.83-.99-106.5-23.14-144.34-58.77-2.4-2.25-4.74-4.56-7.03-6.93-36.28-37.39-59.16-87.86-60.91-143.66-.07-2.29-.11-4.6-.11-6.92,0-1.47,0-2.93.05-4.39,1.11-55.89,23.41-106.58,59.21-144.36,2.63-2.77,5.32-5.47,8.09-8.1,37.59-35.71,88-58.05,143.61-59.4,1.78-.05,3.57-.07,5.36-.07,2.18,0,4.34.03,6.5.1,55.77,1.64,106.24,24.4,143.69,60.55,2.63,2.54,5.19,5.14,7.69,7.8,35.5,37.89,57.52,88.57,58.4,144.38.02,1.16.03,2.32.03,3.49Z"/>
  <path class="cls-1" d="m1528.22,782.95c-18.15,25.87-39.31,51.15-63.29,75.13-77.4,77.4-168.24,125.33-249.18,138.43-.88-55.81-22.9-106.49-58.4-144.38-2.5-2.66-5.06-5.26-7.69-7.8-37.45-36.15-87.92-58.91-143.69-60.55,13.66-80.31,61.4-170.08,137.99-246.67,24.02-24.02,49.34-45.2,75.25-63.37,126.88-89.05,268.08-106.19,341.68-32.59,73.62,73.62,56.45,214.89-32.67,341.8Z"/>
  <path class="cls-1" d="m995.54,1216.28c-12.97,81.08-60.94,172.14-138.5,249.7-23.95,23.95-49.19,45.08-75.02,63.22-126.94,89.18-268.27,106.38-341.91,32.73-73.62-73.62-56.45-214.88,32.67-341.79,18.15-25.87,39.31-51.15,63.29-75.13,76.77-76.77,166.75-124.54,247.19-138.09,1.75,55.8,24.63,106.27,60.91,143.66,2.29,2.37,4.63,4.68,7.03,6.93,37.84,35.63,88.51,57.78,144.34,58.77Z"/>
  <path class="cls-1" d="m1559.86,1561.22c-73.44,73.44-214.21,56.53-340.88-32.02-26.19-18.3-51.78-39.67-76.05-63.94-77.34-77.34-125.26-168.1-138.39-249,55.99-1.29,106.72-23.85,144.42-59.91,2.27-2.17,4.48-4.39,6.65-6.65,35.98-37.51,58.56-87.95,60.09-143.67,80.7,13.32,171.11,61.17,248.2,138.26,24.23,24.23,45.58,49.78,63.86,75.93,88.62,126.7,105.57,267.53,32.1,341Z"/>
  <path class="cls-1" d="m994.11,783.75c-55.61,1.35-106.02,23.69-143.61,59.4-2.77,2.63-5.46,5.33-8.09,8.1-35.8,37.78-58.1,88.47-59.21,144.36-80.69-13.32-171.09-61.17-248.17-138.25-23.74-23.74-44.7-48.74-62.73-74.33-89.6-127.11-107-268.82-33.22-342.6,73.8-73.8,215.57-56.36,342.71,33.32,25.55,18,50.51,38.94,74.21,62.64,76.82,76.82,124.61,166.88,138.11,247.36Z"/>
</svg>