<?xml version="1.0" encoding="UTF-8"?>
<svg id="Layer_1" data-name="Layer 1" xmlns="http://www.w3.org/2000/svg" viewBox="0 0 360.72 313.02">
  <defs>
    <style>
      .cls-1 {
        fill: #1d1d1b;
      }
    </style>
  </defs>
  <path class="cls-1" d="M133.88.22v213.09c0,2.61-.12,5.11-.36,7.48l-.05.34v.08c-2.15,17.53-11.78,28.05-31.27,28.05-20.91,0-33.33-10.7-33.33-36.84v-25.26H0v26.98c0,58.17,34.64,97.57,106.96,97.57,14.97,0,28.52-2.02,40.46-5.76h.01c16.82-5.11,30.42-13.67,40.4-24.6,11.62-12.99,18.33-29.28,20.78-48.76-4.88-9.82-7.51-22.09-7.49-36.07.03-15.51,2.85-29.35,2.46-40.06V.22h-69.7Z"/>
  <path class="cls-1" d="M267.24,80.69c-26.52-.05-44.34,9.64-57.6,24.91-1.71,1.98-3.36,4.05-4.93,6.2h-1.29l.21-111.58v-.09l-69.74-.13v5.27s-.42,215.86-.42,215.86l-.16,84.79,14.11.03h.01l52.63.1.05-27.81h.86c13.65,22.7,37.16,34.73,66.25,34.78,56.48.11,93.36-43.46,93.5-116.2.13-65.89-36.58-116.02-93.48-116.13ZM247.65,257.79c-17.65-.03-31.23-9.46-39.04-25.2-4.88-9.82-7.51-22.09-7.49-36.07.03-15.51,2.85-29.35,8.52-40.06,7.46-14.1,19.88-22.78,37.38-22.75,28.24.05,43.17,24.89,43.1,62.55-.07,38.08-15.09,61.58-42.47,61.53Z"/>
</svg>